<svg width="17" height="17" viewBox="0 0 17 17" fill="none" xmlns="http://www.w3.org/2000/svg">
<path d="M14.195 4.83078L10.115 1.9762C9.00294 1.19703 7.29586 1.23953 6.22627 2.06828L2.67752 4.83786C1.96919 5.39036 1.40961 6.5237 1.40961 7.4162V12.3037C1.40961 14.1099 2.87586 15.5833 4.68211 15.5833H12.3179C14.1242 15.5833 15.5904 14.117 15.5904 12.3108V7.50828C15.5904 6.55203 14.9742 5.3762 14.195 4.83078ZM9.03127 12.7499C9.03127 13.0404 8.79044 13.2812 8.50002 13.2812C8.20961 13.2812 7.96877 13.0404 7.96877 12.7499V10.6249C7.96877 10.3345 8.20961 10.0937 8.50002 10.0937C8.79044 10.0937 9.03127 10.3345 9.03127 10.6249V12.7499Z" fill="#141412"/>
</svg>
