<svg width="25" height="25" viewBox="0 0 25 25" fill="none" xmlns="http://www.w3.org/2000/svg">
<path d="M14.9839 17.2339H9.98389C9.57389 17.2339 9.23389 16.8939 9.23389 16.4839C9.23389 16.0739 9.57389 15.7339 9.98389 15.7339H14.9839C15.3939 15.7339 15.7339 16.0739 15.7339 16.4839C15.7339 16.8939 15.3939 17.2339 14.9839 17.2339Z" fill="#292D32"/>
<path d="M5.68389 10.9439C5.49389 10.9439 5.30389 10.8639 5.15389 10.7239C4.94389 10.5139 4.87389 10.1839 4.99389 9.90389L6.85389 5.46389C6.89389 5.37389 6.91389 5.31389 6.94389 5.26389C8.42389 1.85389 10.3139 1.02389 13.6539 2.30389C13.8439 2.37389 13.9939 2.52389 14.0739 2.71389C14.1539 2.90389 14.1539 3.11389 14.0739 3.30389L11.1439 10.1039C11.0239 10.3739 10.7539 10.5539 10.4539 10.5539H7.60389C7.03389 10.5539 6.49389 10.6639 5.97389 10.8839C5.88389 10.9239 5.78389 10.9439 5.68389 10.9439ZM11.0939 3.23389C9.85389 3.23389 9.09389 4.04389 8.30389 5.88389C8.29389 5.91389 8.27389 5.94389 8.26389 5.97389L6.95389 9.08389C7.17389 9.06389 7.38389 9.05389 7.60389 9.05389H9.95389L12.3639 3.45389C11.8939 3.30389 11.4739 3.23389 11.0939 3.23389Z" fill="#292D32"/>
<path d="M18.7739 10.7539C18.7039 10.7539 18.6239 10.7439 18.5539 10.7239C18.1839 10.6139 17.7739 10.5539 17.3539 10.5539H10.4539C10.2039 10.5539 9.96389 10.4239 9.82389 10.2139C9.69389 10.0039 9.66388 9.73388 9.76388 9.50388L12.6639 2.77388C12.8139 2.41388 13.2439 2.17388 13.6239 2.29388C13.7439 2.33388 13.8539 2.38388 13.9739 2.43388L16.3339 3.42388C17.7139 3.99388 18.6339 4.59388 19.2339 5.31388C19.3539 5.45388 19.4539 5.60388 19.5439 5.75388C19.6539 5.92388 19.7539 6.13388 19.8239 6.34388C19.8539 6.41388 19.9039 6.54388 19.9339 6.68388C20.2139 7.62388 20.0739 8.79388 19.4739 10.2939C19.3539 10.5739 19.0739 10.7539 18.7739 10.7539ZM11.5939 9.05388H17.3639C17.6839 9.05388 17.9939 9.08388 18.3039 9.13388C18.5839 8.26388 18.6439 7.59388 18.4839 7.05388C18.4639 6.96388 18.4439 6.92388 18.4339 6.88388C18.3739 6.72388 18.3339 6.63388 18.2839 6.55388C18.2139 6.44388 18.1639 6.35388 18.0839 6.26388C17.6539 5.74388 16.8939 5.26388 15.7639 4.80388L13.7839 3.97388L11.5939 9.05388Z" fill="#292D32"/>
<path d="M16.3839 23.2339H8.58389C8.30389 23.2339 8.04389 23.2139 7.78389 23.1839C4.27389 22.9439 2.27389 20.9439 2.03389 17.3939C2.00389 17.1739 1.98389 16.9039 1.98389 16.6339V14.6839C1.98389 12.4339 3.32389 10.4039 5.39389 9.50389C6.09389 9.20389 6.84389 9.05389 7.61389 9.05389H17.3739C17.9439 9.05389 18.4939 9.13389 19.0039 9.29389C21.3539 10.0039 23.0039 12.2239 23.0039 14.6839V16.6339C23.0039 16.8539 22.9939 17.0639 22.9839 17.2639C22.7639 21.1739 20.4839 23.2339 16.3839 23.2339ZM7.60389 10.5539C7.03389 10.5539 6.49389 10.6639 5.97389 10.8839C4.45389 11.5439 3.47389 13.0339 3.47389 14.6839V16.6339C3.47389 16.8439 3.49389 17.0539 3.51389 17.2539C3.70389 20.1039 5.10389 21.5039 7.91389 21.6939C8.16389 21.7239 8.36389 21.7439 8.57389 21.7439H16.3739C19.6739 21.7439 21.2939 20.2939 21.4539 17.1939C21.4639 17.0139 21.4739 16.8339 21.4739 16.6339V14.6839C21.4739 12.8739 20.2639 11.2539 18.5439 10.7239C18.1739 10.6139 17.7639 10.5539 17.3439 10.5539H7.60389Z" fill="#292D32"/>
<path d="M2.72388 15.4339C2.31388 15.4339 1.97388 15.0939 1.97388 14.6839V11.7539C1.97388 8.6039 4.20389 5.8839 7.28389 5.2839C7.55388 5.2339 7.83388 5.3339 8.01388 5.5439C8.18388 5.7539 8.23388 6.0539 8.12388 6.3039L6.37388 10.4839C6.29388 10.6639 6.15388 10.8039 5.98388 10.8839C4.46388 11.5439 3.48388 13.0339 3.48388 14.6839C3.47388 15.0939 3.14388 15.4339 2.72388 15.4339ZM6.08388 7.3039C4.80388 8.0239 3.87388 9.2839 3.58388 10.7539C4.02388 10.3039 4.53388 9.9239 5.11388 9.6439L6.08388 7.3039Z" fill="#292D32"/>
<path d="M22.2439 15.4339C21.8339 15.4339 21.4939 15.0939 21.4939 14.6839C21.4939 12.8739 20.2839 11.2539 18.5639 10.7239C18.3639 10.6639 18.1939 10.5239 18.1039 10.3339C18.0139 10.1439 18.0039 9.92388 18.0839 9.73388C18.5539 8.56388 18.6739 7.71388 18.4839 7.05388C18.4639 6.96388 18.4439 6.92388 18.4339 6.88388C18.3039 6.59388 18.3739 6.25388 18.6039 6.03388C18.8339 5.81388 19.1839 5.76388 19.4639 5.91388C21.6439 7.05388 22.9939 9.29388 22.9939 11.7539V14.6839C22.9939 15.0939 22.6539 15.4339 22.2439 15.4339ZM19.7339 9.57388C20.3639 9.86388 20.9239 10.2739 21.3939 10.7639C21.2039 9.78388 20.7339 8.89388 20.0439 8.19388C19.9939 8.61388 19.8939 9.07388 19.7339 9.57388Z" fill="#292D32"/>
</svg>
